<svg xmlns="http://www.w3.org/2000/svg" xmlns:xlink="http://www.w3.org/1999/xlink" viewBox="0 0 448.16 316.88"><defs><linearGradient id="a" x1="224.08" y1="43.57" x2="224.08" y2="375.34" gradientUnits="userSpaceOnUse"><stop offset="0" stop-color="#606bf1"/><stop offset="1" stop-color="#606bf1"/></linearGradient><linearGradient id="b" x1="159.99" y1="166.66" x2="448.16" y2="166.66" gradientUnits="userSpaceOnUse"><stop offset="0" stop-color="#606bf1"/><stop offset="1" stop-color="#1d4589"/></linearGradient><linearGradient id="c" x1="312.4" y1="191.55" x2="312.4" y2="398.14" xlink:href="#b"/><linearGradient id="d" x1="182.98" y1="163.48" x2="375.68" y2="163.48" gradientUnits="userSpaceOnUse"><stop offset="0" stop-color="#f9fbfc"/><stop offset="1" stop-color="#a9b8d2"/></linearGradient></defs><title>Asset 2</title><rect width="448.16" height="316.88" rx="9.57" style="fill:url(#a)"/><path d="M448.16,19.75V307.31a9.57,9.57,0,0,1-9.57,9.57H160c17.61-15.35,28.64-35.37,31-58.7,1.46-14.42.15-29-1.52-43.33s-3.63-29.92,2.5-43.19c11.25-24.39,40.57-29.75,59.72-45.67C267.77,112.62,276,92.87,287.94,76.2s29.48-30.28,49.12-40.36c19.29-9.91,40.5-16.31,59.93-18.42a167.13,167.13,0,0,1,51.17,2.33Z" style="fill:url(#b)"/><path d="M427,20.53a172.85,172.85,0,0,0-18.76,1C388,23.73,366,30.38,346,40.66c-20.38,10.47-38.72,24.72-51,41.89s-20.93,37.81-37.63,51.68c-19.87,16.53-50.31,22.1-62,47.41-6.37,13.77-4.35,29.76-2.6,44.83s3.1,30,1.58,45a90,90,0,0,1-17.74,45.44h262a9.57,9.57,0,0,0,9.57-9.57V21.83A172.39,172.39,0,0,0,427,20.53Z" style="fill:url(#c)"/><path d="M448.16,9.58V307.31a9.57,9.57,0,0,1-9.57,9.57H183c16.21-16.2,26.32-36.45,28.68-59.68,1.62-15.95.18-32-1.67-47.92-1.88-16.06-4-33.09,2.75-47.76,12.45-27,44.86-32.9,66.06-50.51C296.59,96.23,305.69,74.39,318.87,56a124.06,124.06,0,0,1,18.19-20.11C354.6,20.08,377,7.84,399.8,0h38.79A9.57,9.57,0,0,1,448.16,9.58Z" style="fill:#f9fbfc"/><path d="M183,316.88h18a103,103,0,0,0,25.8-58.56c1.72-17,.19-34.16-1.79-51.14-2-17.15-4.29-35.33,2.93-51,13.3-28.79,47.89-35.12,70.53-53.92,19-15.77,28.7-39.09,42.77-58.78A132.22,132.22,0,0,1,360.66,22a163.79,163.79,0,0,1,15-12,172.67,172.67,0,0,0-38.62,25.77A124.06,124.06,0,0,0,318.87,56C305.69,74.39,296.59,96.23,278.8,111c-21.2,17.61-53.61,23.54-66.06,50.51-6.77,14.67-4.63,31.7-2.75,47.76,1.85,15.91,3.29,32,1.67,47.92C209.3,280.43,199.19,300.68,183,316.88Z" style="fill:url(#d)"/></svg>