<svg xmlns="http://www.w3.org/2000/svg" xmlns:xlink="http://www.w3.org/1999/xlink" width="1920" height="2630" viewBox="0 0 1920 2630">
  <defs>
    <linearGradient id="linear-gradient" x1="0.5" y1="0.137" x2="0.5" y2="1.184" gradientUnits="objectBoundingBox">
      <stop offset="0" stop-color="#174566"/>
      <stop offset="1" stop-color="#606bf1"/>
    </linearGradient>
    <linearGradient id="linear-gradient-2" y1="0.5" x2="1" y2="0.5" gradientUnits="objectBoundingBox">
      <stop offset="0" stop-color="#f9fbfc"/>
      <stop offset="1" stop-color="#a9b8d2"/>
    </linearGradient>
    <clipPath id="clip-Web_1920_1">
      <rect width="1920" height="2630"/>
    </clipPath>
  </defs>
  <g id="Web_1920_1" data-name="Web 1920 – 1" clip-path="url(#clip-Web_1920_1)">
    <rect width="1920" height="2630" fill="#fff"/>
    <g id="Asset_2" data-name="Asset 2" transform="translate(-1363.191)">
      <rect id="Rectangle_1" data-name="Rectangle 1" width="3724.005" height="2633.129" rx="9.57" fill="url(#linear-gradient)"/>
      <path id="Path_1" data-name="Path 1" d="M2554.479,43.945V2433.438a79.523,79.523,0,0,1-79.523,79.523H160c146.331-127.552,237.985-293.909,257.6-487.771,12.132-119.824,1.247-240.977-12.63-360.053s-30.164-248.622,20.774-358.889c93.482-202.67,337.118-247.209,496.246-379.5,133.534-111.1,201.922-275.212,301.138-413.732s244.966-251.613,408.165-335.373C1791.579,95.3,1967.825,42.117,2129.28,24.583a1388.775,1388.775,0,0,1,425.2,19.361Z" transform="translate(1169.527 120.169)" fill="#143c5b"/>
      <path id="Path_2" data-name="Path 2" d="M2257.237,20.531a1436.337,1436.337,0,0,0-155.887,8.31C1933.165,47.121,1750.355,102.38,1584.164,187.8c-169.349,87-321.745,205.412-423.787,348.087S986.458,850.073,847.689,965.326C682.578,1102.683,429.636,1148.967,332.5,1359.282c-52.932,114.422-36.146,247.292-21.6,372.517s25.76,249.286,13.129,373.93A747.859,747.859,0,0,1,176.61,2483.314h2177.1a79.522,79.522,0,0,0,79.522-79.523V31.333a1432.474,1432.474,0,0,0-176-10.8Z" transform="translate(1290.939 150.064)" fill="#174566"/>
      <path id="Path_3" data-name="Path 3" d="M2386.359,79.605v2474a79.522,79.522,0,0,1-79.522,79.522H183c134.7-134.615,218.707-302.884,238.318-495.914,13.462-132.537,1.5-265.905-13.877-398.193-15.622-133.451-33.238-274.963,22.851-396.864C533.746,1117.8,803.058,1068.774,979.221,922.443c147.661-122.815,223.278-304.3,332.8-457.108a1030.882,1030.882,0,0,1,151.151-167.105C1608.918,166.856,1795.052,65.147,1984.509,0h322.328a79.522,79.522,0,0,1,79.522,79.605Z" transform="translate(1337.647)" fill="#f9fbfc"/>
      <path id="Path_4" data-name="Path 4" d="M183,2560.033H332.572a855.882,855.882,0,0,0,214.386-486.607c14.292-141.262,1.579-283.854-14.874-424.95-16.619-142.509-35.648-293.576,24.347-423.787C666.948,985.457,954.375,932.858,1142.5,776.638,1300.385,645.6,1380.987,451.818,1497.9,288.2a1098.7,1098.7,0,0,1,161.371-178.489A1361.132,1361.132,0,0,1,1783.917,10,1434.8,1434.8,0,0,0,1463,224.136a1030.91,1030.91,0,0,0-150.985,168.1C1202.5,545.051,1126.881,726.532,979.054,849.264,802.892,995.595,533.58,1044.871,430.126,1268.979c-56.256,121.9-38.473,263.412-22.851,396.864,15.373,132.2,27.338,265.906,13.877,398.193C401.541,2257.15,317.532,2425.418,183,2560.033Z" transform="translate(1337.647 73.096)" fill="url(#linear-gradient-2)"/>
    </g>
  </g>
</svg>
