<svg xmlns="http://www.w3.org/2000/svg" xmlns:xlink="http://www.w3.org/1999/xlink" width="1920" height="1080" viewBox="0 0 1920 1080">
  <defs>
    <linearGradient id="linear-gradient" x1="0.5" y1="0.137" x2="0.5" y2="1.184" gradientUnits="objectBoundingBox">
      <stop offset="0" stop-color="#174566"/>
      <stop offset="1" stop-color="#606bf1"/>
    </linearGradient>
    <linearGradient id="linear-gradient-2" y1="0.5" x2="1" y2="0.5" gradientUnits="objectBoundingBox">
      <stop offset="0" stop-color="#f9fbfc"/>
      <stop offset="1" stop-color="#a9b8d2"/>
    </linearGradient>
    <clipPath id="clip-Web_1920_1">
      <rect width="1920" height="1080"/>
    </clipPath>
  </defs>
  <g id="Web_1920_1" data-name="Web 1920 – 1" clip-path="url(#clip-Web_1920_1)">
    <rect width="1920" height="1080" fill="#fff"/>
    <g id="Asset_2" data-name="Asset 2" transform="translate(-224.191 -250.959)">
      <rect id="Rectangle_1" data-name="Rectangle 1" width="2324.534" height="1643.606" rx="9.57" fill="url(#linear-gradient)"/>
      <path id="Path_1" data-name="Path 1" d="M1654.64,33.608V1525.136A49.638,49.638,0,0,1,1605,1574.775H160c91.34-79.618,148.551-183.458,160.792-304.468,7.573-74.794.778-150.418-7.884-224.746s-18.828-155.19,12.967-224.02c58.352-126.507,210.43-154.308,309.758-236.883C718.986,515.31,761.673,412.87,823.6,326.406s152.908-157.057,254.778-209.341c100.054-51.4,210.067-84.6,310.848-95.542A866.877,866.877,0,0,1,1654.64,33.608Z" transform="translate(669.894 68.832)" fill="#143c5b"/>
      <path id="Path_2" data-name="Path 2" d="M1475.343,20.53a896.566,896.566,0,0,0-97.305,5.187c-104.982,11.411-219.092,45.9-322.829,99.224C949.5,179.248,854.374,253.16,790.68,342.218S682.12,538.333,595.5,610.274C492.437,696.013,334.549,724.9,273.915,856.182c-33.04,71.423-22.563,154.36-13.486,232.526s16.079,155.605,8.2,233.408a466.816,466.816,0,0,1-92.015,235.69H1535.562a49.638,49.638,0,0,0,49.638-49.638V27.273a894.154,894.154,0,0,0-109.857-6.743Z" transform="translate(739.438 85.955)" fill="#174566"/>
      <path id="Path_3" data-name="Path 3" d="M1558.343,49.69V1593.968a49.638,49.638,0,0,1-49.638,49.638H183c84.079-84.027,136.518-189.061,148.759-309.551,8.4-82.73.934-165.979-8.662-248.553-9.751-83.3-20.747-171.633,14.264-247.723C401.937,697.734,570.042,667.132,680,575.791c92.17-76.662,139.37-189.942,207.733-285.328a643.48,643.48,0,0,1,94.349-104.307c90.977-82,207.162-145.491,325.422-186.156h201.2a49.638,49.638,0,0,1,49.638,49.69Z" transform="translate(766.192)" fill="#f9fbfc"/>
      <path id="Path_4" data-name="Path 4" d="M183,1601.737h93.363A534.244,534.244,0,0,0,410.184,1298c8.921-88.176.985-177.183-9.284-265.255-10.374-88.954-22.252-183.251,15.2-264.529,68.985-149.329,248.4-182.162,365.828-279.674,98.55-81.8,148.862-202.754,221.841-304.882A685.811,685.811,0,0,1,1104.494,72.242,849.629,849.629,0,0,1,1182.3,10,895.608,895.608,0,0,0,981.981,143.665a643.5,643.5,0,0,0-94.245,104.93C819.373,343.98,772.173,457.261,679.9,533.871c-109.961,91.34-278.066,122.1-342.643,261.987-35.115,76.091-24.015,164.423-14.264,247.723,9.6,82.523,17.065,165.979,8.662,248.553C319.414,1412.677,266.975,1517.71,183,1601.737Z" transform="translate(766.192 41.869)" fill="url(#linear-gradient-2)"/>
    </g>
  </g>
</svg>
