<svg xmlns="http://www.w3.org/2000/svg" viewBox="0 0 169.88 123.24"><title>Asset 1</title><g style="isolation:isolate"><path d="M169.88,59.52v1.81a1.09,1.09,0,0,1-.64.9v-1.8A1.11,1.11,0,0,0,169.88,59.52Z" style="fill:#7396ab"/><path d="M74.65,68.66v-1.8a1.11,1.11,0,0,0,.66.91v1.81A1.14,1.14,0,0,1,74.65,68.66Z" style="fill:#7396ab"/><polygon points="169.23 60.43 169.22 62.23 117.64 92.21 117.64 90.41 169.23 60.43" style="fill:#7396ab"/><polygon points="114.51 90.41 114.51 92.21 75.3 69.58 75.31 67.77 114.51 90.41" style="fill:#7396ab"/><path d="M117.64,90.41v1.8a3.45,3.45,0,0,1-3.13,0v-1.8A3.45,3.45,0,0,0,117.64,90.41Z" style="fill:#7396ab"/><path d="M169.22,58.61a1,1,0,0,1,0,1.82l-51.59,30a3.45,3.45,0,0,1-3.13,0L75.31,67.77c-.87-.5-.88-1.31,0-1.81l51.58-30A3.41,3.41,0,0,1,130,36Z" style="fill:#a5b7c6"/></g><polygon points="114.52 86.92 80.32 67.18 130.01 38.49 164.21 58.23 114.52 86.92" style="fill:#f9fbfc"/><g style="isolation:isolate"><path d="M133.31,45.47v-.91a.56.56,0,0,0,.33.46v.9A.53.53,0,0,1,133.31,45.47Z" style="fill:#9ca0e5"/><path d="M152.82,46.24v.9a2.48,2.48,0,0,1-1.45,2v-.9A2.46,2.46,0,0,0,152.82,46.24Z" style="fill:#9ca0e5"/><path d="M156.32,51.4v.9a.56.56,0,0,1-.33.45v-.9A.57.57,0,0,0,156.32,51.4Z" style="fill:#9ca0e5"/><polygon points="156 51.85 155.99 52.75 151.52 55.35 151.53 54.44 156 51.85" style="fill:#9ca0e5"/><polygon points="149.96 54.44 149.96 55.35 133.63 45.92 133.63 45.02 149.96 54.44" style="fill:#9ca0e5"/><path d="M151.53,54.44v.91a1.72,1.72,0,0,1-1.56,0v-.91A1.68,1.68,0,0,0,151.53,54.44Z" style="fill:#9ca0e5"/><path d="M151.35,44.18c2,1.13,2,3,0,4.09L156,50.94c.44.25.44.65,0,.91l-4.47,2.59a1.68,1.68,0,0,1-1.57,0L133.64,45a.48.48,0,0,1,0-.91l4.47-2.6a1.74,1.74,0,0,1,1.57,0l4.62,2.67A7.78,7.78,0,0,1,151.35,44.18Z" style="fill:#b1b2f3"/></g><rect x="134.25" y="41.9" width="0.52" height="26.7" transform="translate(19.41 144.11) rotate(-60)" style="fill:#a5b7c6"/><rect x="128.8" y="45.04" width="0.52" height="26.7" transform="translate(13.97 140.97) rotate(-60)" style="fill:#a5b7c6"/><rect x="123.36" y="48.18" width="0.52" height="26.7" transform="translate(8.52 137.83) rotate(-60)" style="fill:#a5b7c6"/><rect x="117.92" y="51.33" width="0.52" height="26.7" transform="translate(3.08 134.69) rotate(-60)" style="fill:#a5b7c6"/><rect x="112.48" y="54.47" width="0.52" height="26.7" transform="translate(-2.36 131.55) rotate(-60)" style="fill:#a5b7c6"/><path d="M25,74.36,4.36,62.42c-.58-.34-.51-.92.16-1.31l14.15-8.17a2.51,2.51,0,0,1,2.26-.09L41.61,64.79c.58.33.51.92-.16,1.3L27.3,74.26A2.52,2.52,0,0,1,25,74.36Z" style="fill:#c2d1dc"/><g style="isolation:isolate"><path d="M21.75,55.41V56a1.06,1.06,0,0,1-.62.86,3.31,3.31,0,0,1-3,0A1.07,1.07,0,0,1,17.5,56V55.4a1,1,0,0,0,.62.87,3.3,3.3,0,0,0,3,0A1.06,1.06,0,0,0,21.75,55.41Z" style="fill:#dd7272"/><path d="M21.12,54.53a.92.92,0,0,1,0,1.74,3.3,3.3,0,0,1-3,0,.92.92,0,0,1,0-1.74A3.3,3.3,0,0,1,21.12,54.53Z" style="fill:#ec827d"/></g><g style="isolation:isolate"><path d="M27,58.41V59a1,1,0,0,1-.61.87,3.31,3.31,0,0,1-3,0,1.08,1.08,0,0,1-.63-.88V58.4a1.08,1.08,0,0,0,.63.88,3.31,3.31,0,0,0,3,0A1,1,0,0,0,27,58.41Z" style="fill:#efbd41"/><path d="M26.33,57.54a.92.92,0,0,1,0,1.74,3.31,3.31,0,0,1-3,0,.92.92,0,0,1,0-1.74A3.3,3.3,0,0,1,26.33,57.54Z" style="fill:#fbd15b"/></g><g style="isolation:isolate"><path d="M32.16,61.42v.63a1.06,1.06,0,0,1-.62.86,3.3,3.3,0,0,1-3,0,1.07,1.07,0,0,1-.63-.88V61.4a1,1,0,0,0,.62.88,3.3,3.3,0,0,0,3,0A1.06,1.06,0,0,0,32.16,61.42Z" style="fill:#dd7272"/><path d="M31.53,60.54a.92.92,0,0,1,0,1.74,3.3,3.3,0,0,1-3,0,.92.92,0,0,1,0-1.74A3.3,3.3,0,0,1,31.53,60.54Z" style="fill:#ec827d"/></g><g style="isolation:isolate"><path d="M37.36,64.42v.63a1,1,0,0,1-.62.87,3.3,3.3,0,0,1-3,0,1.09,1.09,0,0,1-.62-.88v-.63a1.08,1.08,0,0,0,.63.88,3.31,3.31,0,0,0,3,0A1,1,0,0,0,37.36,64.42Z" style="fill:#efbd41"/><path d="M36.74,63.55a.92.92,0,0,1,0,1.74,3.31,3.31,0,0,1-3,0,.92.92,0,0,1,0-1.74A3.3,3.3,0,0,1,36.74,63.55Z" style="fill:#fbd15b"/></g><g style="isolation:isolate"><path d="M17.08,58.12v.63a1.06,1.06,0,0,1-.61.87,3.3,3.3,0,0,1-3,0,1.08,1.08,0,0,1-.63-.88v-.63a1.08,1.08,0,0,0,.63.88,3.3,3.3,0,0,0,3,0A1.07,1.07,0,0,0,17.08,58.12Z" style="fill:#efbd41"/><path d="M16.45,57.25a.92.92,0,0,1,0,1.74,3.3,3.3,0,0,1-3,0,.92.92,0,0,1,0-1.74A3.31,3.31,0,0,1,16.45,57.25Z" style="fill:#fbd15b"/></g><g style="isolation:isolate"><path d="M22.28,61.13v.63a1.06,1.06,0,0,1-.62.86,3.3,3.3,0,0,1-3,0,1.07,1.07,0,0,1-.62-.87v-.63a1.07,1.07,0,0,0,.63.87,3.31,3.31,0,0,0,3,0A1,1,0,0,0,22.28,61.13Z" style="fill:#dd7272"/><path d="M21.66,60.25a.92.92,0,0,1,0,1.74,3.31,3.31,0,0,1-3,0,.92.92,0,0,1,0-1.74A3.3,3.3,0,0,1,21.66,60.25Z" style="fill:#ec827d"/></g><g style="isolation:isolate"><path d="M27.49,64.13v.63a1.08,1.08,0,0,1-.62.87,3.27,3.27,0,0,1-3,0,1.05,1.05,0,0,1-.63-.87v-.63a1.08,1.08,0,0,0,.63.88,3.3,3.3,0,0,0,3,0A1.06,1.06,0,0,0,27.49,64.13Z" style="fill:#efbd41"/><path d="M26.86,63.26a.92.92,0,0,1,0,1.74,3.3,3.3,0,0,1-3,0,.92.92,0,0,1,0-1.74A3.3,3.3,0,0,1,26.86,63.26Z" style="fill:#fbd15b"/></g><g style="isolation:isolate"><path d="M32.69,67.14v.63a1.06,1.06,0,0,1-.62.86,3.3,3.3,0,0,1-3,0,1.05,1.05,0,0,1-.62-.87v-.63a1.07,1.07,0,0,0,.62.87,3.3,3.3,0,0,0,3,0A1,1,0,0,0,32.69,67.14Z" style="fill:#dd7272"/><path d="M32.07,66.26a.92.92,0,0,1,0,1.74,3.3,3.3,0,0,1-3,0,.92.92,0,0,1,0-1.74A3.33,3.33,0,0,1,32.07,66.26Z" style="fill:#ec827d"/></g><g style="isolation:isolate"><path d="M12.4,60.84v.63a1.06,1.06,0,0,1-.62.86,3.3,3.3,0,0,1-3,0,1.07,1.07,0,0,1-.62-.87v-.63a1.07,1.07,0,0,0,.63.87,3.31,3.31,0,0,0,3,0A1,1,0,0,0,12.4,60.84Z" style="fill:#dd7272"/><path d="M11.78,60a.92.92,0,0,1,0,1.74,3.31,3.31,0,0,1-3,0,.92.92,0,0,1,0-1.74A3.3,3.3,0,0,1,11.78,60Z" style="fill:#ec827d"/></g><g style="isolation:isolate"><path d="M17.61,63.84v.63a1.06,1.06,0,0,1-.62.87,3.31,3.31,0,0,1-3,0,1.07,1.07,0,0,1-.63-.88v-.63a1.07,1.07,0,0,0,.63.88,3.3,3.3,0,0,0,3,0A1.06,1.06,0,0,0,17.61,63.84Z" style="fill:#efbd41"/><path d="M17,63a.92.92,0,0,1,0,1.74,3.3,3.3,0,0,1-3,0A.92.92,0,0,1,14,63,3.3,3.3,0,0,1,17,63Z" style="fill:#fbd15b"/></g><g style="isolation:isolate"><path d="M22.81,66.85v.63a1.07,1.07,0,0,1-.61.86,3.33,3.33,0,0,1-3,0,1.07,1.07,0,0,1-.62-.87v-.63a1.07,1.07,0,0,0,.62.87,3.33,3.33,0,0,0,3,0A1,1,0,0,0,22.81,66.85Z" style="fill:#dd7272"/><path d="M22.18,66a.92.92,0,0,1,0,1.74,3.33,3.33,0,0,1-3,0,.92.92,0,0,1,0-1.74A3.34,3.34,0,0,1,22.18,66Z" style="fill:#ec827d"/></g><g style="isolation:isolate"><path d="M28,69.85v.63a1.08,1.08,0,0,1-.62.87,3.3,3.3,0,0,1-3,0,1.07,1.07,0,0,1-.63-.88v-.63a1.07,1.07,0,0,0,.63.88,3.3,3.3,0,0,0,3,0A1.06,1.06,0,0,0,28,69.85Z" style="fill:#efbd41"/><path d="M27.39,69a.92.92,0,0,1,0,1.74,3.3,3.3,0,0,1-3,0,.92.92,0,0,1,0-1.74A3.3,3.3,0,0,1,27.39,69Z" style="fill:#fbd15b"/></g><path d="M118.44,18.67a4.22,4.22,0,0,0-1.92-3.31l-2.25-1.3a4.27,4.27,0,0,1-1.91-3.32V8.14a4.27,4.27,0,0,0-1.92-3.32L102.54.26c-1.05-.61-1.91-.11-1.91,1.11V4c0,1.21-.86,1.71-1.92,1.1l-2.25-1.3c-1-.61-1.92-.11-1.92,1.11V14a4.25,4.25,0,0,0,1.92,3.31l2.25,1.3a4.25,4.25,0,0,1,1.92,3.32v2.6a4.25,4.25,0,0,0,1.91,3.32l7.9,4.56c1,.61,1.92.11,1.92-1.11V28.7c0-1.21.86-1.71,1.91-1.1l2.25,1.3c1.06.61,1.92.11,1.92-1.11Z" style="fill:#bee1f4"/><path d="M43.15,112.13l14.74,8.56a3.65,3.65,0,0,0,1.83.44v2.11a3.78,3.78,0,0,1-1.83-.44l-14.73-8.56a1.28,1.28,0,0,1-.75-1v-2.11A1.28,1.28,0,0,0,43.15,112.13Z" style="fill:#b1b2f3"/><path d="M43.17,110a1.12,1.12,0,0,0,0,2.12l14.74,8.56a4,4,0,0,0,3.66,0l35-20.29a1.12,1.12,0,0,0,0-2.12L81.79,89.72a4,4,0,0,0-3.66,0Z" style="fill:#112b46"/><g style="isolation:isolate"><path d="M51.91,114.1a2.74,2.74,0,0,1,2.51,0c.69.4.68,1.05,0,1.45a2.73,2.73,0,0,1-2.49,0c-.69-.41-.69-1,0-1.45" style="fill:#56548c"/></g><g style="isolation:isolate"><path d="M84.7,93.87a.72.72,0,0,1,.67,0L89.05,96c.19.1.18.28,0,.38a.72.72,0,0,1-.67,0L84.7,94.25a.2.2,0,0,1,0-.38" style="fill:#56548c"/></g><path d="M61.55,120.69l35-20.29a1.28,1.28,0,0,0,.76-1.06v2.11a1.3,1.3,0,0,1-.77,1.06l-35,20.29a3.79,3.79,0,0,1-1.84.44v-2.11A3.75,3.75,0,0,0,61.55,120.69Z" style="fill:#b1b2f3"/><path d="M49.71,116.66c-.12-.07-.23,0-.23.14V117a.49.49,0,0,0,.23.4l1.51.87c.13.07.23,0,.23-.13v-.17a.51.51,0,0,0-.22-.39Z" style="fill:#112b46"/><path d="M47.09,115.08c-.2-.12-.37,0-.37.2a.8.8,0,0,0,.36.63c.21.12.37,0,.37-.21A.78.78,0,0,0,47.09,115.08Z" style="fill:#112b46"/><path d="M46,114.47c-.19-.12-.36,0-.36.21a.78.78,0,0,0,.36.62c.2.12.36,0,.37-.21A.76.76,0,0,0,46,114.47Z" style="fill:#112b46"/><path d="M45,113.86c-.2-.12-.36,0-.36.21a.81.81,0,0,0,.36.63c.2.11.37,0,.37-.21A.82.82,0,0,0,45,113.86Z" style="fill:#112b46"/><path d="M43.93,113.25c-.2-.11-.36,0-.36.21a.79.79,0,0,0,.36.63c.2.11.36,0,.36-.21A.81.81,0,0,0,43.93,113.25Z" style="fill:#112b46"/><path d="M57.24,121c-.2-.11-.37,0-.37.21a.8.8,0,0,0,.37.63c.2.12.36,0,.36-.21A.81.81,0,0,0,57.24,121Z" style="fill:#112b46"/><path d="M56.18,120.43c-.19-.12-.36,0-.36.2a.8.8,0,0,0,.36.63.23.23,0,0,0,.37-.21A.76.76,0,0,0,56.18,120.43Z" style="fill:#112b46"/><path d="M55.13,119.82c-.2-.12-.36,0-.36.21a.78.78,0,0,0,.36.62c.2.12.37,0,.37-.2A.79.79,0,0,0,55.13,119.82Z" style="fill:#112b46"/><path d="M54.08,119.21c-.2-.12-.36,0-.36.21a.81.81,0,0,0,.36.63c.2.11.36,0,.36-.21A.81.81,0,0,0,54.08,119.21Z" style="fill:#112b46"/><path d="M93.22,103.32l-.25-.14a.23.23,0,0,0-.25,0l.25.14A.25.25,0,0,1,93.22,103.32Z" style="fill:#9498e0"/><polygon points="92.97 103.34 92.72 103.2 90.57 104.44 90.82 104.58 92.97 103.34" style="fill:#9498e0"/><path d="M90.32,105.28l.25.15a.27.27,0,0,1-.1-.23.81.81,0,0,1,.35-.62l-.25-.14a.79.79,0,0,0-.35.62A.23.23,0,0,0,90.32,105.28Z" style="fill:#9498e0"/><path d="M90.82,104.58a.81.81,0,0,0-.35.62c0,.22.16.32.36.2L93,104.17a.79.79,0,0,0,.36-.62c0-.23-.17-.32-.36-.21Z" style="fill:#bec1f4"/><path d="M89.67,105.39l-.25-.14a.25.25,0,0,0-.26,0l.25.15A.25.25,0,0,1,89.67,105.39Z" style="fill:#9498e0"/><polygon points="89.41 105.42 89.16 105.27 87.02 106.51 87.27 106.65 89.41 105.42" style="fill:#9498e0"/><path d="M86.77,107.35l.25.15a.25.25,0,0,1-.11-.23.81.81,0,0,1,.36-.62l-.25-.14a.78.78,0,0,0-.36.62A.22.22,0,0,0,86.77,107.35Z" style="fill:#9498e0"/><path d="M87.27,106.65a.81.81,0,0,0-.36.62.22.22,0,0,0,.36.21l2.15-1.24a.81.81,0,0,0,.35-.62c0-.22-.16-.32-.36-.2Z" style="fill:#bec1f4"/><polygon points="86.39 100.75 84.77 101.69 73.77 95.34 75.39 94.4 86.39 100.75" style="fill:#cfd7db"/><path d="M75.32,94.09,89.06,102,87,103.24,73.23,95.3Zm9.45,7.61,1.62-1-11-6.35-1.62.94,11,6.36m1.52.61a1.32,1.32,0,0,0,1.18,0,.37.37,0,0,0,0-.69,1.27,1.27,0,0,0-1.17,0,.36.36,0,0,0,0,.68" style="fill:#f9fbfc"/><polygon points="86.04 96.89 85.64 97.12 83.79 96.06 84.2 95.82 86.04 96.89" style="fill:#f9fbfc"/><polygon points="92.91 100.85 92.5 101.09 90.66 100.03 91.07 99.79 92.91 100.85" style="fill:#f9fbfc"/><polygon points="77.38 92.36 77.78 92.12 78.09 92.3 77.69 92.53 77.38 92.36" style="fill:#f9fbfc"/><polygon points="77.47 91.94 77.06 92.17 76.92 92.09 77.33 91.86 77.47 91.94" style="fill:#f9fbfc"/><polygon points="78.4 92.48 78.72 92.66 78.31 92.89 78 92.71 78.4 92.48" style="fill:#f9fbfc"/><polygon points="79.17 92.92 78.77 93.16 78.62 93.07 79.03 92.84 79.17 92.92" style="fill:#f9fbfc"/><path d="M87.46,101.63a.37.37,0,0,1,0,.69,1.32,1.32,0,0,1-1.18,0,.36.36,0,0,1,0-.68A1.27,1.27,0,0,1,87.46,101.63Z" style="fill:#cfd7db"/><path d="M77.07,91.25,94,101l-3.61,2.11-5.12,3-21.35,12.4L47,108.73l10-5.8,3.1-1.8Zm-1.75,2.84L73.23,95.3,87,103.24,89.06,102,75.32,94.09m8.88,1.73-.41.24,1.85,1.06.4-.23L84.2,95.82m8.31,5.27.4-.24-1.84-1.06-.41.23,1.85,1.07M78.4,92.48l-.4.23.31.18.41-.23-.32-.18m-.62-.36-.4.23.31.18.4-.23-.31-.18m1.25.72-.41.23.15.09.4-.24L79,92.84m-2-.66.41-.24-.14-.08-.41.23.14.09" style="fill:#606bf1"/><polyline points="84.2 95.82 86.04 96.89 85.64 97.12 83.79 96.06 84.2 95.82" style="fill:#b1b2f3"/><polyline points="92.5 101.09 90.66 100.03 91.07 99.79 92.91 100.85 92.5 101.09" style="fill:#b1b2f3"/><polyline points="78.4 92.48 78.72 92.66 78.31 92.89 78 92.71 78.4 92.48" style="fill:#b1b2f3"/><polyline points="77.78 92.12 78.09 92.3 77.69 92.53 77.38 92.36 77.78 92.12" style="fill:#b1b2f3"/><polyline points="79.03 92.84 79.17 92.92 78.77 93.16 78.62 93.07 79.03 92.84" style="fill:#b1b2f3"/><polyline points="77.06 92.17 76.92 92.09 77.33 91.86 77.47 91.94 77.06 92.17" style="fill:#b1b2f3"/><path d="M72.28,101.34a1.65,1.65,0,0,0-1.47,0l-.86.5a1.59,1.59,0,0,1-1.47,0l-.87-.5a1.65,1.65,0,0,0-1.47,0l-3,1.75c-.41.24-.41.62,0,.85l.86.5c.41.24.41.62,0,.85l-.86.5c-.41.24-.41.62,0,.85l3,1.75a1.59,1.59,0,0,0,1.47,0l.87-.5a1.65,1.65,0,0,1,1.47,0l.86.5a1.59,1.59,0,0,0,1.47,0l3-1.75a.45.45,0,0,0,0-.85l-.87-.5a.45.45,0,0,1,0-.85l.87-.5a.45.45,0,0,0,0-.85Z" style="fill:#bee1f4"/><path d="M146.31,85.7l-28.39,14.66a1,1,0,0,1-1-.16l28.38-14.65A1,1,0,0,0,146.31,85.7Z" style="fill:#efbd41"/><path d="M116.05,96.72l28.38-14.65A1,1,0,0,0,144,83a3.25,3.25,0,0,0,1.32,2.57L116.9,100.2a3.17,3.17,0,0,1-1.32-2.57A1,1,0,0,1,116.05,96.72Z" style="fill:#fbd15b"/><path d="M145.28,85.55a1,1,0,0,0,1,.15l.41-.57,2.24-3-3.79,0h-.74a1,1,0,0,0-.47.9A3.25,3.25,0,0,0,145.28,85.55Z" style="fill:#e9e5d9"/><path d="M147.28,82.09a3.36,3.36,0,0,0,.71,1.33l1-1.32Z" style="fill:#56548c"/><path d="M153.13,63.54,125.54,79.65a1,1,0,0,1-1-.1L152.1,63.44A1,1,0,0,0,153.13,63.54Z" style="fill:#dd7272"/><path d="M123.48,76.12,151.07,60a1,1,0,0,0-.42.93,3.19,3.19,0,0,0,1.45,2.5L124.51,79.55a3.19,3.19,0,0,1-1.45-2.5A1,1,0,0,1,123.48,76.12Z" style="fill:#ec827d"/><path d="M152.1,63.44a1,1,0,0,0,1,.1l.38-.58,2.09-3.15-3.79.17-.74,0h0a1,1,0,0,0-.42.93A3.19,3.19,0,0,0,152.1,63.44Z" style="fill:#e9e5d9"/><path d="M153.92,59.89a3.47,3.47,0,0,0,.77,1.29l.91-1.37Z" style="fill:#56548c"/><path d="M77.45,16.56h0c-.25,3.33-6.24,6.3-11.29,6.3s-11.05-3-11.3-6.3c-3.23,2.73-5.66,7.51-5.66,11.5V47.8c0,5.14,9.21,9.8,17,9.8s17-4.66,17-9.8V28.06C83.11,24.07,80.68,19.3,77.45,16.56Z" style="fill:#c2d1dc"/><path d="M66.15,3.28c5.16,0,11.3,3.1,11.3,6.53s-6.14,6.52-11.3,6.52-11.31-3.1-11.31-6.52S61,3.28,66.15,3.28Z" style="fill:#ff7d6c"/><path d="M77.46,16.33a1.79,1.79,0,0,1,0,.23c-.25,3.33-6.24,6.3-11.29,6.3s-11.05-3-11.3-6.3c0-.08,0-.15,0-.23V9.81c0,3.42,6.14,6.52,11.31,6.52s11.3-3.1,11.3-6.52v6.52Z" style="fill:#f15f58"/><path d="M76.91,33.64v15a24.64,24.64,0,0,1-10.76,2.65,24.45,24.45,0,0,1-12.51-3.64v-15a24.36,24.36,0,0,0,12.51,3.64A24.63,24.63,0,0,0,76.91,33.64Z" style="fill:#f9fbfc"/><path d="M68.53,75.72v.88c0,.91-1.64,1.74-3,1.74v-.87C66.89,77.47,68.53,76.64,68.53,75.72Z" style="fill:#989be2"/><path d="M65.51,74c1.38,0,3,.83,3,1.74s-1.64,1.75-3,1.75Z" style="fill:#b1b2f3"/><path d="M65.51,74v3.49c-1.38,0-3-.83-3-1.75S64.13,74,65.51,74Z" style="fill:#606bf1"/><path d="M62.48,76.6v-.88c0,.92,1.65,1.75,3,1.75v.87C64.13,78.34,62.48,77.51,62.48,76.6Z" style="fill:#4c5ee0"/><path d="M64.09,81.81v.87c0,.92-1.65,1.75-3,1.75v-.88C62.44,83.55,64.09,82.72,64.09,81.81Z" style="fill:#989be2"/><path d="M61.06,80.06c1.38,0,3,.83,3,1.75s-1.65,1.74-3,1.74Z" style="fill:#b1b2f3"/><path d="M61.06,80.06v3.49c-1.38,0-3-.83-3-1.74S59.68,80.06,61.06,80.06Z" style="fill:#606bf1"/><path d="M58,82.68v-.87c0,.91,1.64,1.74,3,1.74v.88C59.68,84.43,58,83.6,58,82.68Z" style="fill:#4c5ee0"/><path d="M59.55,75.29v.87c0,.92-1.64,1.75-3,1.75V77C57.91,77,59.55,76.2,59.55,75.29Z" style="fill:#d8d0bc"/><path d="M56.52,73.54c1.39,0,3,.83,3,1.75S57.91,77,56.52,77Z" style="fill:#f9fbfc"/><path d="M56.52,73.54V77c-1.38,0-3-.83-3-1.74S55.14,73.54,56.52,73.54Z" style="fill:#d8d0bc"/><path d="M53.5,76.16v-.87c0,.91,1.64,1.74,3,1.74v.88C55.14,77.91,53.5,77.08,53.5,76.16Z" style="fill:#c6bb9d"/><path d="M64.91,70.92v.87c0,.92-1.64,1.75-3,1.75v-.87C63.27,72.67,64.91,71.83,64.91,70.92Z" style="fill:#d8d0bc"/><path d="M61.89,69.17c1.38,0,3,.83,3,1.75s-1.64,1.75-3,1.75Z" style="fill:#f9fbfc"/><path d="M61.89,69.17v3.5c-1.38,0-3-.84-3-1.75S60.51,69.17,61.89,69.17Z" style="fill:#d8d0bc"/><path d="M58.86,71.79v-.87c0,.91,1.65,1.74,3,1.75v.87C60.51,73.54,58.86,72.71,58.86,71.79Z" style="fill:#c6bb9d"/><path d="M37,77,39,75.73a2.28,2.28,0,0,1,2-.06l.06,0a2.27,2.27,0,0,1,1.07,1.74v.07a2.27,2.27,0,0,1-1,1.8l-2.09,1.3h0c.54-.33.43-1.61-.07-2.42S37.52,76.72,37,77Z" style="fill:#feca7a"/><path d="M35.35,78,37,77a.53.53,0,0,1,.26-.06,2.7,2.7,0,0,1,2.12,3.43.73.73,0,0,1-.22.24h0l-1.57,1a2.28,2.28,0,0,1-2.05.06l-.06,0a2.27,2.27,0,0,1-1.07-1.74V79.8A2.24,2.24,0,0,1,35.35,78Z" style="fill:#f24c88"/><path d="M46.36,68.27l2-1.27a2.26,2.26,0,0,1,2-.06l.07,0a2.27,2.27,0,0,1,1.07,1.74v.07a2.27,2.27,0,0,1-1,1.8l-2.09,1.29h0c.54-.33.43-1.61-.08-2.43S46.91,68,46.36,68.27Z" style="fill:#f24c88"/><path d="M44.73,69.27l1.63-1a.66.66,0,0,1,.26-.07,2.7,2.7,0,0,1,2.12,3.44.61.61,0,0,1-.22.23h0l-1.58,1a2.26,2.26,0,0,1-2,.06l-.06,0a2.29,2.29,0,0,1-1.07-1.74v-.07A2.3,2.3,0,0,1,44.73,69.27Z" style="fill:#feca7a"/><path d="M47.57,77.9l.88-2.25A2.26,2.26,0,0,1,50,74.38h.07a2.3,2.3,0,0,1,1.91.74l0,.06a2.3,2.3,0,0,1,.31,2l-.9,2.29h0c.23-.59-.62-1.55-1.52-1.9S47.84,77.35,47.57,77.9Z" style="fill:#f24c88"/><path d="M46.87,79.68l.7-1.78a.63.63,0,0,1,.17-.2A2.49,2.49,0,0,1,50,77.59a2.53,2.53,0,0,1,1.55,1.58.78.78,0,0,1,0,.31h0l-.68,1.73a2.24,2.24,0,0,1-1.6,1.28h-.06a2.26,2.26,0,0,1-1.91-.75l0,0A2.28,2.28,0,0,1,46.87,79.68Z" style="fill:#feca7a"/><path d="M8.91,80.91A.13.13,0,0,0,9,80.66L.2,75.59a.14.14,0,0,0-.18,0,.13.13,0,0,0,.05.19l8.77,5.06A.11.11,0,0,0,8.91,80.91Z" style="fill:#c2d1dc"/><path d="M8.91,80.78c-.5.87-.57,2.2,0,2.53l2.56,1.48a6.45,6.45,0,0,1,.73-2.11A6.22,6.22,0,0,1,13.67,81l-2.56-1.48C10.53,79.18,9.41,79.91,8.91,80.78Z" style="fill:#a5b7c6"/><path d="M11.47,84.79c-.21,1.29,0,2.53.73,3l1.23.7a7.53,7.53,0,0,1,4.39-7.6l-1.23-.71c-.73-.42-1.91,0-2.92.85a6.22,6.22,0,0,0-1.47,1.69A6.45,6.45,0,0,0,11.47,84.79Z" style="fill:#c2d1dc"/><path d="M13.43,88.45h0a3,3,0,0,0,.11.54l1,.55c0-.16-.07-.34-.1-.51a7.53,7.53,0,0,1,4.4-7.63,3.39,3.39,0,0,1,.51-.17l-1-.55a3.5,3.5,0,0,0-.52.17,7.53,7.53,0,0,0-4.39,7.6Z" style="fill:#dfe9f0"/><path d="M19.35,91.88h0a4.51,4.51,0,0,0,.1.53l2.42,1.39c-1.41-.82-1.24-3.75-.15-5.63.92-1.6,2.75-2.9,4.08-2.9a1.71,1.71,0,0,1,.87.22l-2.43-1.41a3.06,3.06,0,0,0-.48.17,7.52,7.52,0,0,0-4.41,7.63Z" style="fill:#112b46"/><path d="M14.39,89c0,.17.06.35.1.51l5,2.87a4.51,4.51,0,0,1-.1-.53h0a7.52,7.52,0,0,1,4.41-7.63,3.06,3.06,0,0,1,.48-.17L19.3,81.23a3.39,3.39,0,0,0-.51.17A7.53,7.53,0,0,0,14.39,89Z" style="fill:#606bf1"/><path d="M18.34,80.68l8.33,4.81a2.55,2.55,0,0,1,1,2.32l5.37,3.1a7.81,7.81,0,0,1,2.17-1.28L19.88,80.78A2,2,0,0,0,18.34,80.68Z" style="fill:#dfe9f0"/><path d="M21.26,91.39a2.28,2.28,0,0,0,.81,2,1.31,1.31,0,0,0,.67.17A2.89,2.89,0,0,0,24,93.27l-1.08-.63c-.87-.5-.76-2.5,0-3.8s2.42-2.4,3.29-1.9l1.09.63a2,2,0,0,0-.8-1.73,1.29,1.29,0,0,0-.66-.16c-1.18,0-2.88,1.23-3.73,2.7A6.42,6.42,0,0,0,21.26,91.39Z" style="fill:#112b46"/><path d="M22.88,88.84c-.76,1.3-.87,3.3,0,3.8l1.08.63.42.24h0l5.38,3.1h0a8.77,8.77,0,0,1,3.29-5.7l-5.37-3.1-.42-.24-1.09-.63C25.3,86.44,23.63,87.54,22.88,88.84Z" style="fill:#a5b7c6"/><path d="M24.38,93.51a3.49,3.49,0,0,1-1.64.51,1.75,1.75,0,0,1-.87-.22L13.54,89a2,2,0,0,0,.86,1.29l15.34,8.86a7.43,7.43,0,0,1,0-2.53h0l-5.38-3.1Z" style="fill:#dfe9f0"/><path d="M27.68,87.81a2.55,2.55,0,0,0-1-2.32,1.71,1.71,0,0,0-.87-.22c-1.33,0-3.16,1.3-4.08,2.9-1.09,1.88-1.27,4.81.15,5.63a1.75,1.75,0,0,0,.87.22,3.49,3.49,0,0,0,1.64-.51L24,93.27a2.89,2.89,0,0,1-1.22.34,1.31,1.31,0,0,1-.67-.17,2.28,2.28,0,0,1-.81-2,6.42,6.42,0,0,1,.81-3c.85-1.47,2.55-2.7,3.73-2.7a1.29,1.29,0,0,1,.66.16,2,2,0,0,1,.8,1.73Z" style="fill:#666f77"/><path d="M32,94.08c-1.5,2.6-1.73,6.6,0,7.6h0c1.1.64,2.87,0,4.39-1.27l-2.77-1.6c-.87-.5-.75-2.5,0-3.8s2.43-2.4,3.29-1.9l2.77,1.6c.31-1.94,0-3.79-1.1-4.43C36.81,89.28,33.46,91.48,32,94.08Z" style="fill:#dfe9f0"/><path d="M33.57,95c-.75,1.3-.87,3.3,0,3.8l2.77,1.6,3.59,2.07a6.26,6.26,0,0,1,.8-3.33,6.35,6.35,0,0,1,2.49-2.37l-3.59-2.07-2.77-1.6C36,92.61,34.32,93.71,33.57,95Z" style="fill:#a5b7c6"/><path d="M30.85,101.05l1.1.63c-1.73-1-1.5-5,0-7.6s4.86-4.8,6.58-3.8l-1.09-.63h0a2.66,2.66,0,0,0-2.22,0,7.81,7.81,0,0,0-2.17,1.28,8.77,8.77,0,0,0-3.29,5.7,7.43,7.43,0,0,0,0,2.53A2.67,2.67,0,0,0,30.85,101.05Z" style="fill:#c2d1dc"/><path d="M40.73,104.21l1.09.64c-1.15-.67-1-3.33,0-5.07s3.24-3.2,4.39-2.53l-1.09-.64h0a2.07,2.07,0,0,0-1.89.17,6.35,6.35,0,0,0-2.49,2.37,6.26,6.26,0,0,0-.8,3.33,2,2,0,0,0,.8,1.73Z" style="fill:#dfe9f0"/><path d="M41.82,99.78c-1,1.74-1.15,4.4,0,5.07s3.39-.8,4.39-2.54,1.15-4.4,0-5.06S42.83,98,41.82,99.78Z" style="fill:#c2d1dc"/></svg>