<svg xmlns="http://www.w3.org/2000/svg" xmlns:xlink="http://www.w3.org/1999/xlink" width="1920" height="2160" viewBox="0 0 1920 2160">
  <defs>
    <linearGradient id="linear-gradient" x1="0.5" y1="0.137" x2="0.5" y2="1.184" gradientUnits="objectBoundingBox">
      <stop offset="0" stop-color="#174566"/>
      <stop offset="1" stop-color="#606bf1"/>
    </linearGradient>
    <linearGradient id="linear-gradient-2" y1="0.5" x2="1" y2="0.5" gradientUnits="objectBoundingBox">
      <stop offset="0" stop-color="#f9fbfc"/>
      <stop offset="1" stop-color="#a9b8d2"/>
    </linearGradient>
    <clipPath id="clip-Web_1920_1">
      <rect width="1920" height="2160"/>
    </clipPath>
  </defs>
  <g id="Web_1920_1" data-name="Web 1920 – 1" clip-path="url(#clip-Web_1920_1)">
    <rect width="1920" height="2160" fill="#174566"/>
    <g id="Asset_2" data-name="Asset 2" transform="translate(-1229.191 -253.959)">
      <rect id="Rectangle_1" data-name="Rectangle 1" width="3413.171" height="2413.347" rx="9.57" fill="url(#linear-gradient)"/>
      <path id="Path_1" data-name="Path 1" d="M2354.617,41.649V2231.7a72.885,72.885,0,0,1-72.885,72.885H160c134.117-116.905,218.121-269.377,236.095-447.057,11.119-109.822,1.143-220.863-11.576-330s-27.646-227.87,19.04-328.934c85.68-185.753,308.98-226.575,454.826-347.821,122.388-101.825,185.068-252.241,276-379.2s224.519-230.611,374.1-307.38C1655.395,88.716,1816.929,39.973,1964.908,23.9a1272.857,1272.857,0,0,1,389.709,17.745Z" transform="translate(1058.555 108.766)" fill="#143c5b"/>
      <path id="Path_2" data-name="Path 2" d="M2083.571,20.531A1316.449,1316.449,0,0,0,1940.7,28.147C1786.549,44.9,1619,95.548,1466.678,173.84c-155.214,79.739-294.89,188.267-388.414,319.033s-159.4,287.96-286.589,393.593c-151.329,125.892-383.159,168.313-472.19,361.073-48.514,104.872-33.129,226.651-19.8,341.424s23.609,228.479,12.033,342.719A685.438,685.438,0,0,1,176.61,2277.751H2171.993a72.885,72.885,0,0,0,72.884-72.885V30.431a1312.906,1312.906,0,0,0-161.306-9.9Z" transform="translate(1168.446 135.825)" fill="#174566"/>
      <path id="Path_3" data-name="Path 3" d="M2202.449,72.961v2267.5a72.885,72.885,0,0,1-72.885,72.885H183c123.455-123.379,200.452-277.6,218.426-454.521,12.338-121.475,1.371-243.711-12.719-364.957-14.318-122.312-30.464-252.012,20.944-363.738C504.47,1024.5,751.3,979.566,912.762,845.449c135.336-112.564,204.641-278.9,305.019-418.955a944.837,944.837,0,0,1,138.535-153.157C1489.9,152.929,1660.5,59.709,1834.141,0h295.424a72.885,72.885,0,0,1,72.885,72.961Z" transform="translate(1210.722)" fill="#f9fbfc"/>
      <path id="Path_4" data-name="Path 4" d="M183,2347.187H320.087A784.444,784.444,0,0,0,516.579,1901.2c13.1-129.472,1.447-260.162-13.633-389.48-15.232-130.614-32.672-269.072,22.315-388.414C626.554,904.038,889.99,855.829,1062.416,712.649c144.7-120.1,218.578-297.708,325.735-447.666a1007,1007,0,0,1,147.9-163.591A1247.533,1247.533,0,0,1,1650.292,10a1315.043,1315.043,0,0,0-294.128,196.263,944.858,944.858,0,0,0-138.383,154.071C1117.4,500.392,1048.1,666.725,912.609,779.212,751.151,913.329,504.317,958.492,409.5,1163.895c-51.56,111.726-35.262,241.426-20.944,363.738,14.09,121.17,25.057,243.711,12.719,364.957C383.3,2069.585,306.3,2223.808,183,2347.187Z" transform="translate(1210.722 66.16)" fill="url(#linear-gradient-2)"/>
    </g>
  </g>
</svg>
